<?xml version="1.0" standalone="no"?>
<!DOCTYPE svg PUBLIC "-//W3C//DTD SVG 20010904//EN"
 "http://www.w3.org/TR/2001/REC-SVG-20010904/DTD/svg10.dtd">
<svg version="1.0" xmlns="http://www.w3.org/2000/svg"
 width="512.000000pt" height="512.000000pt" viewBox="0 0 512.000000 512.000000"
 preserveAspectRatio="xMidYMid meet">

<g transform="translate(0.000000,512.000000) scale(0.100000,-0.100000)"
fill="#000000" stroke="none">
<path d="M4325 5105 c-98 -20 -217 -82 -305 -158 -41 -36 -567 -558 -1168
-1159 l-1094 -1095 59 -23 c199 -79 359 -185 513 -340 154 -153 246 -290 325
-482 l32 -77 1160 1162 1161 1162 40 85 c126 264 77 557 -124 756 -66 65 -178
130 -274 158 -78 24 -239 29 -325 11z"/>
<path d="M1160 2333 c-306 -33 -601 -202 -746 -429 -196 -306 -355 -1014 -400
-1778 l-7 -119 129 7 c158 9 462 40 644 67 519 76 932 200 1146 347 163 111
305 317 368 536 76 260 52 526 -69 771 -63 128 -127 216 -224 308 -225 212
-543 322 -841 290z"/>
</g>
</svg>
